<svg width="32" height="32" viewBox="0 0 32 32" fill="none" xmlns="http://www.w3.org/2000/svg">
<g clip-path="url(#clip0_742_68)">
<path d="M28.6364 16.2499H26.663C26.0726 16.2503 25.4864 16.1559 24.93 15.9706C24.3736 16.1558 23.7874 16.2502 23.197 16.2499H21.6948C20.8049 16.2472 19.9524 15.9141 19.3234 15.3236C18.6944 14.733 18.3402 13.9329 18.338 13.098V9.25434C17.8278 9.34834 17.3682 9.60546 17.0374 9.98186C16.7067 10.3582 16.5254 10.8306 16.5244 11.3184V13.8809H12.2376V11.3184C12.2369 10.7607 12.0004 10.2259 11.58 9.83156C11.1597 9.43717 10.5897 9.21531 9.99522 9.21463H8.69648C8.61454 9.21463 8.53397 9.21463 8.4534 9.22103C9.06355 9.67523 9.55637 10.253 9.89502 10.911C10.2337 11.5691 10.4094 12.2904 10.409 13.0212C10.4181 13.4512 10.3357 13.8786 10.1667 14.2783C9.99756 14.6781 9.74517 15.0422 9.42426 15.3493C9.10334 15.6564 8.72035 15.9004 8.29769 16.067C7.87504 16.2336 7.42121 16.3194 6.96279 16.3194C6.50436 16.3194 6.05053 16.2336 5.62788 16.067C5.20523 15.9004 4.82223 15.6564 4.50132 15.3493C4.1804 15.0422 3.92801 14.6781 3.75892 14.2783C3.58983 13.8786 3.50743 13.4512 3.51656 13.0212C3.51499 12.3831 3.64828 11.7512 3.90871 11.1618C4.16914 10.5724 4.55154 10.0373 5.0338 9.58746C5.16883 9.45742 5.31203 9.33506 5.46262 9.22103C5.38341 9.22103 5.3042 9.21463 5.22499 9.21463H3.36361C2.7691 9.21531 2.19916 9.43717 1.77878 9.83156C1.35841 10.2259 1.12192 10.7607 1.1212 11.3184V16.2499H0V11.3184C0.0010842 10.4818 0.355811 9.67972 0.986375 9.08813C1.61694 8.49655 2.47185 8.16375 3.36361 8.16274H5.23045C5.82131 8.16126 6.40802 8.25531 6.96483 8.44076C7.5227 8.25571 8.11024 8.16167 8.70195 8.16274H10.0007C10.8915 8.16511 11.745 8.4985 12.3744 9.08994C13.0038 9.68138 13.3577 10.4827 13.3588 11.3184V12.8315H15.4073V11.3184C15.4084 10.4818 15.7631 9.67972 16.3937 9.08813C17.0242 8.49655 17.8792 8.16375 18.7709 8.16274H19.4537V13.098C19.4548 13.6563 19.692 14.1914 20.1132 14.5859C20.5344 14.9803 21.1051 15.2018 21.7002 15.2018H23.2025C23.283 15.2018 23.3636 15.2018 23.4442 15.2018C22.8342 14.7472 22.3416 14.1692 22.0029 13.511C21.6643 12.8527 21.4885 12.1313 21.4886 11.4004C21.5065 10.5541 21.8775 9.74806 22.5218 9.15547C23.1662 8.56288 24.0325 8.23095 24.9348 8.23095C25.8371 8.23095 26.7034 8.56288 27.3477 9.15547C27.9921 9.74806 28.3631 10.5541 28.381 11.4004C28.3814 12.1313 28.2057 12.8529 27.867 13.5111C27.5284 14.1694 27.0356 14.7474 26.4254 15.2018C26.506 15.2018 26.5865 15.2018 26.6685 15.2018H28.6419C29.2364 15.2011 29.8063 14.9793 30.2267 14.5849C30.6471 14.1905 30.8835 13.6558 30.8843 13.098V8.16274H32.0055V13.0993C32.0029 13.9359 31.6468 14.7375 31.0152 15.3281C30.3836 15.9187 29.5281 16.2502 28.6364 16.2499ZM6.96483 9.5785C6.27028 9.88742 5.68343 10.3749 5.27246 10.9843C4.8615 11.5937 4.6433 12.3 4.64322 13.0212C4.64322 13.5988 4.88782 14.1528 5.32321 14.5613C5.75859 14.9698 6.34911 15.1993 6.96483 15.1993C7.58056 15.1993 8.17108 14.9698 8.60646 14.5613C9.04185 14.1528 9.28645 13.5988 9.28645 13.0212C9.2862 12.3001 9.06794 11.5938 8.65699 10.9844C8.24605 10.3751 7.65929 9.88754 6.96483 9.5785ZM24.9341 9.21463C24.3184 9.21463 23.7279 9.4441 23.2925 9.85258C22.8571 10.261 22.6125 10.8151 22.6125 11.3927C22.6127 12.1138 22.831 12.8201 23.2419 13.4294C23.6529 14.0388 24.2397 14.5263 24.9341 14.8354C25.6285 14.5262 26.2151 14.0387 26.6261 13.4293C27.037 12.82 27.2553 12.1138 27.2557 11.3927C27.2557 11.1064 27.1955 10.8228 27.0786 10.5583C26.9617 10.2938 26.7903 10.0535 26.5743 9.85121C26.3583 9.64891 26.1019 9.48855 25.8197 9.37932C25.5376 9.27009 25.2352 9.21412 24.93 9.21463H24.9341Z" fill="#0D9488"/>
<path d="M29.0024 7.39398C29.4127 7.39398 29.7453 7.08193 29.7453 6.69699C29.7453 6.31205 29.4127 6 29.0024 6C28.5921 6 28.2595 6.31205 28.2595 6.69699C28.2595 7.08193 28.5921 7.39398 29.0024 7.39398Z" fill="#0D9488"/>
<path d="M30.7299 7.39398C31.1402 7.39398 31.4728 7.08193 31.4728 6.69699C31.4728 6.31205 31.1402 6 30.7299 6C30.3196 6 29.987 6.31205 29.987 6.69699C29.987 7.08193 30.3196 7.39398 30.7299 7.39398Z" fill="#0D9488"/>
<path d="M23.9003 7.39398C24.3106 7.39398 24.6432 7.08193 24.6432 6.69699C24.6432 6.31205 24.3106 6 23.9003 6C23.49 6 23.1574 6.31205 23.1574 6.69699C23.1574 7.08193 23.49 7.39398 23.9003 7.39398Z" fill="#0D9488"/>
<path d="M25.6279 7.39398C26.0382 7.39398 26.3708 7.08193 26.3708 6.69699C26.3708 6.31205 26.0382 6 25.6279 6C25.2176 6 24.8849 6.31205 24.8849 6.69699C24.8849 7.08193 25.2176 7.39398 25.6279 7.39398Z" fill="#0D9488"/>
<path d="M10.988 16.2332C11.3983 16.2332 11.7309 15.9212 11.7309 15.5362C11.7309 15.1513 11.3983 14.8392 10.988 14.8392C10.5777 14.8392 10.2451 15.1513 10.2451 15.5362C10.2451 15.9212 10.5777 16.2332 10.988 16.2332Z" fill="#0D9488"/>
<path d="M12.7156 16.2332C13.1259 16.2332 13.4585 15.9212 13.4585 15.5362C13.4585 15.1513 13.1259 14.8392 12.7156 14.8392C12.3053 14.8392 11.9727 15.1513 11.9727 15.5362C11.9727 15.9212 12.3053 16.2332 12.7156 16.2332Z" fill="#0D9488"/>
<path d="M15.8716 16.2332C16.2819 16.2332 16.6146 15.9212 16.6146 15.5362C16.6146 15.1513 16.2819 14.8392 15.8716 14.8392C15.4613 14.8392 15.1287 15.1513 15.1287 15.5362C15.1287 15.9212 15.4613 16.2332 15.8716 16.2332Z" fill="#0D9488"/>
<path d="M17.5992 16.2332C18.0095 16.2332 18.3421 15.9212 18.3421 15.5362C18.3421 15.1513 18.0095 14.8392 17.5992 14.8392C17.1889 14.8392 16.8563 15.1513 16.8563 15.5362C16.8563 15.9212 17.1889 16.2332 17.5992 16.2332Z" fill="#0D9488"/>
<path d="M3.91669 19.8578H0V20.5599H1.59645V25.927H2.34483V20.5599H3.91669V19.8578Z" fill="#0D9488"/>
<path d="M6.94983 19.8578C6.34809 19.8585 5.7712 20.083 5.3457 20.4822C4.9202 20.8814 4.68084 21.4226 4.68011 21.9872V25.927H5.42849V23.9103H8.46707V25.927H9.21545V21.9872C9.21473 21.4233 8.97593 20.8827 8.55132 20.4836C8.12671 20.0845 7.55087 19.8595 6.94983 19.8578ZM5.42849 23.2082V21.9872C5.42849 21.6087 5.58878 21.2456 5.87408 20.9779C6.15939 20.7103 6.54635 20.5599 6.94983 20.5599C7.35332 20.5599 7.74027 20.7103 8.02558 20.9779C8.31089 21.2456 8.47117 21.6087 8.47117 21.9872V23.2082H5.42849Z" fill="#0D9488"/>
<path d="M18.6972 20.5689H19.5712V19.8578H18.6972C18.1572 19.8625 17.641 20.0671 17.261 20.427C16.881 20.7869 16.6678 21.273 16.6678 21.7796V23.9923C16.666 24.5 16.8784 24.9878 17.2586 25.3491C17.6388 25.7104 18.156 25.9158 18.6972 25.9206H19.5712V25.2185H18.6972C18.3554 25.2161 18.0285 25.0866 17.7884 24.8584C17.5482 24.6302 17.4144 24.322 17.4162 24.0013V23.2505H19.5712V22.5394H17.4162V21.7886C17.4149 21.6296 17.4471 21.4719 17.5107 21.3246C17.5744 21.1772 17.6684 21.0431 17.7874 20.9298C17.9063 20.8166 18.0479 20.7264 18.204 20.6645C18.3601 20.6025 18.5277 20.57 18.6972 20.5689Z" fill="#0D9488"/>
<path d="M22.4759 20.5689H23.3527V19.8578H22.4787C21.9387 19.8625 21.4225 20.0671 21.0425 20.427C20.6625 20.7869 20.4493 21.273 20.4493 21.7796V23.9923C20.4475 24.5 20.6599 24.9878 21.0401 25.3491C21.4203 25.7104 21.9375 25.9158 22.4787 25.9206H23.3527V25.2185H22.4787C22.1369 25.2161 21.81 25.0866 21.5699 24.8584C21.3297 24.6302 21.1959 24.322 21.1977 24.0013V23.2505H23.3527V22.5394H21.1949V21.7886C21.1937 21.6296 21.2258 21.4719 21.2895 21.3246C21.3532 21.1772 21.4472 21.0431 21.5662 20.9298C21.6851 20.8166 21.8267 20.7264 21.9828 20.6645C22.1389 20.6025 22.3064 20.57 22.4759 20.5689Z" fill="#0D9488"/>
<path d="M31.7132 25.927H30.9662V20.5599C30.5626 20.5757 30.181 20.7372 29.9012 21.0105C29.6213 21.2838 29.4647 21.6479 29.464 22.0269V24.1845H26.7327V22.0269C26.7323 21.6377 26.5672 21.2646 26.2738 20.9895C25.9803 20.7144 25.5825 20.5599 25.1676 20.5599H25.1389V25.927H24.3906V19.8578H25.1663C25.7787 19.8601 26.3653 20.0894 26.7983 20.4957C27.2314 20.902 27.4758 21.4523 27.4783 22.0269V23.4837H28.717V22.0269C28.7195 21.4523 28.9639 20.902 29.3969 20.4957C29.83 20.0894 30.4166 19.8601 31.029 19.8578H31.7118L31.7132 25.927Z" fill="#0D9488"/>
<path d="M15.7214 22.5202C15.7214 21.829 15.4288 21.1662 14.9079 20.6775C14.3869 20.1887 13.6804 19.9142 12.9437 19.9142C12.207 19.9142 11.5005 20.1887 10.9795 20.6775C10.4586 21.1662 10.166 21.829 10.166 22.5202C10.166 24.8405 12.691 25.8642 12.7989 25.9065L12.9519 25.9667L13.1035 25.9001C13.4506 25.7368 13.7788 25.5401 14.0826 25.3133L14.7081 26L15.2776 25.5452L14.6385 24.8431C15.2093 24.287 15.7214 23.5119 15.7214 22.5202ZM12.9369 25.1903C12.4398 24.9481 10.9143 24.0782 10.9143 22.5202C10.9281 22.0236 11.148 21.5517 11.5272 21.2051C11.9064 20.8584 12.4149 20.6644 12.9444 20.6644C13.4738 20.6644 13.9824 20.8584 14.3616 21.2051C14.7408 21.5517 14.9607 22.0236 14.9744 22.5202C14.9744 23.2544 14.592 23.854 14.1468 24.3037L13.7576 23.8757L13.1881 24.3319L13.5978 24.7765C13.3888 24.9296 13.1678 25.0679 12.9369 25.1903Z" fill="#0D9488"/>
</g>
<defs>
<clipPath id="clip0_742_68">
<rect width="32" height="20" fill="white" transform="translate(0 6)"/>
</clipPath>
</defs>
</svg>
